<svg width="500" height="155" xmlns="http://www.w3.org/2000/svg" xmlns:xlink="http://www.w3.org/1999/xlink" overflow="hidden"><defs><clipPath id="clip0"><rect x="1983" y="1162" width="500" height="155"/></clipPath></defs><g clip-path="url(#clip0)" transform="translate(-1983 -1162)"><path d="M2045.61 1245.19 2032.94 1268.5C2031.92 1266.79 2030.89 1265.76 2030.2 1264.39 2024.39 1254.79 2018.91 1245.19 2013.43 1235.94 2012.41 1234.57 2012.41 1232.85 2013.43 1231.48 2018.23 1223.94 2023.02 1216.4 2027.81 1208.86 2028.15 1208.18 2028.49 1207.49 2029.18 1206.46 2027.81 1206.46 2026.78 1206.12 2025.76 1206.12 2016.86 1206.12 2007.96 1206.12 1999.06 1206.12 1996.66 1206.46 1994.61 1205.44 1993.92 1203.38 1992.9 1201.32 1991.87 1199.61 1990.5 1197.55L2044.58 1197.55C2043.21 1199.95 2041.84 1201.67 2040.82 1203.72 2035 1212.98 2029.52 1221.89 2023.7 1231.14 2022.67 1232.51 2022.67 1234.57 2023.7 1235.94 2026.1 1239.71 2028.49 1243.82 2030.89 1247.94 2031.57 1248.96 2032.26 1249.65 2032.94 1250.33 2035.68 1245.19 2038.42 1240.74 2040.82 1236.28 2041.84 1234.23 2043.21 1232.17 2044.24 1230.11 2045.27 1228.06 2045.95 1228.74 2046.63 1230.11L2053.14 1240.4C2054.51 1242.79 2055.19 1242.79 2056.56 1240.4 2064.43 1227.03 2072.65 1213.66 2080.52 1200.29 2081.2 1198.58 2083.26 1197.21 2085.31 1197.55 2087.37 1197.55 2089.42 1197.55 2092.5 1197.55L2054.85 1259.59 2045.61 1245.19Z" stroke="#2E65B8" stroke-width="6.875" stroke-miterlimit="8" fill="#2E65B8" fill-rule="evenodd"/><text font-family="Myriad Pro,Myriad Pro_MSFontService,sans-serif" font-weight="700" font-size="73" transform="matrix(1 0 0 1 2114.65 1255)">Ziqi Wang</text></g></svg>